<svg xmlns="http://www.w3.org/2000/svg" viewBox="0 0 1644.0967 340.1582"><defs><style>.a8014527-cd15-4769-b7f4-829086ded450{fill:#0092d2;}.b7b9faba-ec19-45ef-bd5f-7cef92a39f27{fill:#fff;}</style></defs><g id="e9f78ae2-3e8d-493b-88b7-4b898d18a1c5" data-name="LOGO"><circle class="a8014527-cd15-4769-b7f4-829086ded450" cx="170.07693" cy="170.07985" r="133.72972" transform="translate(-34.70049 296.25245) rotate(-76.63959)"/><path class="b7b9faba-ec19-45ef-bd5f-7cef92a39f27" d="M236.14648,204.3897c-.0791.0898-.1494.1797-.2197.2695a14.47385,14.47385,0,0,0-.9502,1.2598c-.1299.1806-.25.3701-.3594.5508-.1298.1894-.25.3896-.3701.5996-.0605.0996-.1103.1904-.16008.29-.17.2998-.33012.6104-.47952.9199-.0108.0098-.0108.0196-.02048.0303-.16022.3398-.30962.6797-.45022,1.0293v.0107a5.76008,5.76008,0,0,0-.29978.7901H107.32718a5.92031,5.92031,0,0,0-.2998-.7901c-.1309-.3506-.29-.7002-.4502-1.04-.0098-.0107-.0098-.0205-.0205-.0303-.1602-.3496-.3399-.6904-.5293-1.0195l-.0205-.0205c-.1797-.3301-.3701-.6397-.5801-.9502a.19387.19387,0,0,0-.04-.0596c-.17-.2705-.3496-.5205-.5293-.7705-.23048-.3193-.48048-.6299-.73048-.9199a.8079.8079,0,0,0-.12012-.1494l62.7597-108.6905c.3301.0606.67.1104,1,.1504.3799.0498.7706.0899,1.15042.1094.37988.0303.76958.04,1.15038.04h.01962c.37978,0,.77048-.0097,1.15038-.04.38962-.0195.7695-.0596,1.1494-.1094.3398-.04.6806-.0898,1.0097-.1601Zm-34.7197-46.6407-5-8.6601-26.3496,15.2207-26.3398-15.21-5,8.6602,26.3398,15.21v30.4091h10V172.9698Zm86.8701-50.1494a132.935,132.935,0,0,1,15.5098,62.4795c0,72.0703-57.2998,131-128.7295,133.6407V228.8897h-10v74.8301c-71.4307-2.6407-128.7305-61.5704-128.7305-133.6407a132.9357,132.9357,0,0,1,15.5108-62.4795l64.789,37.3994,5-8.6601L56.877,98.9492a133.651,133.651,0,0,1,226.40038,0l-64.7608,37.3897,5,8.6601ZM267.877,216.8496a14.82624,14.82624,0,0,0,0-1.6406,17.66711,17.66711,0,0,0-1.07032-5.2793l-.0293-.0908c-.0908-.2393-.19038-.4893-.3008-.7295-.09958-.2402-.21-.4902-.3301-.7305a.6483.6483,0,0,0-.0898-.1894c-.0996-.2197-.21968-.4502-.3399-.6602-.0703-.1396-.1494-.2803-.2294-.4199a1.62382,1.62382,0,0,0-.1407-.2197,2.79245,2.79245,0,0,0-.2295-.3701,8.98722,8.98722,0,0,0-.6103-.9004,3.3534,3.3534,0,0,0-.2695-.3799c-.1299-.1904-.2803-.3701-.4307-.5498a.182.182,0,0,0-.0596-.0703,7.24665,7.24665,0,0,0-.5303-.6094,5.84244,5.84244,0,0,0-.5996-.6309,6.47455,6.47455,0,0,0-.5898-.5595.16464.16464,0,0,0-.0703-.0704,5.62725,5.62725,0,0,0-.5303-.4599,1.71964,1.71964,0,0,0-.2803-.2197,8.9406,8.9406,0,0,0-.8896-.67c-.1494-.1201-.2998-.2197-.46-.33a1.37,1.37,0,0,0-.16988-.0996c-.23052-.1504-.46972-.3008-.71-.4405a2.7714,2.7714,0,0,0-.29-.1601c-.29982-.17-.61042-.3301-.91992-.4795-.0098-.0108-.0205-.0108-.0303-.0205-.33978-.1602-.6797-.3096-1.0303-.4502h-.0097a9.8928,9.8928,0,0,0-1.0801-.3994,15.42412,15.42412,0,0,0-2.25-.5899,9.33983,9.33983,0,0,0-1.0801-.1807.53433.53433,0,0,0-.1094-.0195c-.3603-.0498-.74018-.0801-1.1103-.1006-.37988-.0293-.7598-.04-1.1494-.04-.23048-.0098-.461,0-.6807.0107-.1602.0098-.3301.0196-.4902.0293a14.30361,14.30361,0,0,0-1.7198.1905c-.1494.0195-.29.0498-.4296.0703l-62.75-108.7002c.1894-.2197.3701-.4405.54-.6699a8.94835,8.94835,0,0,0,.6299-.8702.85725.85725,0,0,0,.1201-.1601q.32955-.49515.6299-1.0195c.1504-.25.2803-.5.4004-.75a6.7345,6.7345,0,0,0,.3496-.71c.12992-.25.2402-.5108.3496-.7705q.2109-.5406.3906-1.0801a16.88256,16.88256,0,0,0,.7793-3.3994c.0508-.3809.0908-.7608.11042-1.1504.03018-.3799.04-.7705.04-1.1504v-.0195c0-.3799-.00982-.7705-.04-1.1504-.01962-.3799-.05962-.7695-.11042-1.1494a17.54431,17.54431,0,0,0-1.1797-4.4805c-.0097-.0195-.0097-.04-.0195-.0498-.1006-.25-.21-.5-.3301-.75a6.20759,6.20759,0,0,0-.3398-.6797c-.0606-.1308-.1201-.25-.19048-.3701-.07032-.1299-.13962-.2607-.20992-.3799-.2002-.3408-.4102-.6807-.6299-1.0107a2.812,2.812,0,0,0-.21-.2901,7.2089,7.2089,0,0,0-.4707-.6591,3.54017,3.54017,0,0,0-.30948-.3809,5.05736,5.05736,0,0,0-.42972-.5098,4.65321,4.65321,0,0,0-.4307-.4795,4.80412,4.80412,0,0,0-.38958-.4101,6.9355,6.9355,0,0,0-.54982-.5205,2.75737,2.75737,0,0,0-.2598-.2393c-.29-.2607-.5801-.5-.8809-.7305a8.81339,8.81339,0,0,0-.8691-.6298c-.0508-.0401-.1006-.0801-.1602-.1202q-.495-.32955-1.0205-.6298c-.1201-.0704-.25-.1397-.3799-.21-.1201-.0703-.2402-.1299-.3701-.1904a6.29868,6.29868,0,0,0-.67968-.3399c-.25-.1201-.49022-.2295-.74022-.3301a.14275.14275,0,0,1-.0596-.0195,17.47527,17.47527,0,0,0-4.4707-1.1806h-.0097c-.3799-.0499-.75978-.0899-1.1397-.1094h-.0205c-.3799-.0303-.75-.0401-1.1299-.0401h-.04c-.3799,0-.75.0098-1.1299.0401h-.0195c-.3799.0195-.7608.0595-1.1407.1094h-.0097a17.47888,17.47888,0,0,0-4.4697,1.1806.14739.14739,0,0,0-.0606.0195c-.2695.1104-.5498.2403-.8193.3702-.3399.1504-.6807.33-1.0108.5097-.1191.0606-.22948.1201-.3398.1905-.3399.2002-.67968.4101-1.0098.6298a2.811,2.811,0,0,0-.29.21,6.10015,6.10015,0,0,0-.6602.4697c-.1299.1006-.25968.2002-.3799.3106a5.02943,5.02943,0,0,0-.5097.4297,6.321,6.321,0,0,0-.4805.4297,4.96213,4.96213,0,0,0-.4092.3906,4.81471,4.81471,0,0,0-.3906.4101,6.147,6.147,0,0,0-.4297.4795,5.05712,5.05712,0,0,0-.4297.5098c-.1103.1201-.2099.25-.3105.3809a6.06614,6.06614,0,0,0-.4697.6591,1.97337,1.97337,0,0,0-.21.2901c-.2197.33-.4307.6699-.6299,1.0107a3.66577,3.66577,0,0,0-.1904.3399c-.1797.33-.3496.6699-.5098,1.0097-.1299.2696-.2597.5498-.37008.8203a.14331.14331,0,0,1-.01952.0596,17.48127,17.48127,0,0,0-1.1807,4.4697v.0108c-.04978.3799-.08978.7597-.1094,1.1396v.0196c-.0302.3808-.04.75-.04,1.1308v.0401c0,.3798.0098.75.04,1.1298v.0196c.01962.3798.05962.7597.1094,1.1406v.0098a17.48127,17.48127,0,0,0,1.1807,4.4697.1381.1381,0,0,0,.01952.0596c.09958.25.21.4902.33008.7402a6.14554,6.14554,0,0,0,.3398.6807c.12012.25.2598.5.4004.75.1992.3496.4102.6894.6299,1.0195.04.0498.0801.1103.1201.1601a18.15495,18.15495,0,0,0,1.17972,1.5498L93.61718,198.3897c-.1406-.0205-.28018-.0508-.4306-.0703a16.53017,16.53017,0,0,0-1.7198-.1905c-.1699-.0097-.33-.0195-.5-.0293-.2197-.0107-.4394-.0107-.6601-.0107-.38968,0-.7793.0107-1.1602.04-.3691.0205-.72948.0508-1.0898.1006a.78848.78848,0,0,0-.1494.0195c-.3604.0499-.71.1006-1.0606.1807a17.95609,17.95609,0,0,0-2.25.5899,9.97,9.97,0,0,0-1.0801.3994h-.0097c-.3496.1406-.6895.29-1.0303.4502-.0098.0097-.0195.0097-.0293.0205-.3105.1494-.6201.3095-.9199.4795-.1006.0498-.19038.1006-.29.1601-.21.1201-.4102.2403-.6006.3701-.1895.1202-.3702.2403-.54978.3604a14.13073,14.13073,0,0,0-1.25982.9492,6.84391,6.84391,0,0,0-.6504.5703,6.00924,6.00924,0,0,0-.6299.5996q-.3003.3003-.5996.6309a4.34054,4.34054,0,0,0-.3701.4199c-.1299.1494-.2598.2998-.3799.46-.3008.3701-.5898.7597-.86028,1.1592-.22952.3408-.44052.6806-.65042,1.04-.1094.1904-.21.3701-.30958.5605a9.91892,9.91892,0,0,0-.50982,1.0498c-.1904.4004-.3603.8204-.5097,1.2305-.1006.2598-.19048.5293-.27048.7998-.00982.0195-.01962.0498-.03032.0694-.0596.2001-.1201.4003-.1699.6005-.0293.1104-.0596.2198-.0899.3399-.0595.25-.1201.5-.16988.7597-.05962.2901-.12012.5899-.16022.8907-.08.5195-.1396,1.04-.1699,1.5693-.0097.1602-.0195.3203-.0303.4805-.0097.2295-.0097.4697-.0097.7002,0,.3799.0097.7597.04,1.1396.0205.3799.0606.7696.1104,1.1397-.0108.0205,0,.0302,0,.04.0498.3799.1093.7608.1894,1.1299a15.10021,15.10021,0,0,0,.5899,2.2402,8.34366,8.34366,0,0,0,.40042,1.0899c.12978.3506.29.7002.45018,1.04.0097.0108.0097.0205.0195.0303.1601.3496.3398.6904.53032,1.0205,0,.0098.02048.0195.02048.0195.1797.3203.3691.6397.5791.9502.0107.0195.0205.0498.04.0596.1699.2705.3506.5205.5303.7705a10.97217,10.97217,0,0,0,.7305.9199,4.42189,4.42189,0,0,0,.3701.4199,14.42729,14.42729,0,0,0,1.5693,1.5596c.2598.2305.5205.4502.7998.6602,0,0,.0108.0205.0205.0205.3096.25.6397.4795.9697.7099h.0098a11.95346,11.95346,0,0,0,1.0606.6602c.1796.1094.3593.21.54.2998a10.52954,10.52954,0,0,0,1.0801.5293,5.24636,5.24636,0,0,0,.5595.2402,15.54293,15.54293,0,0,0,2.3301.7803c.29012.0703.58012.1396.87012.2002.25.0498.5.0996.75978.1396a16.58565,16.58565,0,0,0,1.7197.1905c.1709.0097.3301.0195.5.0293.2207.0107.44052.0107.6602.0107.3906,0,.78032-.0107,1.1601-.04.3604-.0205.7198-.0508,1.0704-.1006a.57706.57706,0,0,0,.1796-.0293,8.79957,8.79957,0,0,0,1.0498-.1709,10.22617,10.22617,0,0,0,1.1407-.2598c.3701-.0898.7295-.2002,1.0898-.3193a.14588.14588,0,0,0,.0596-.0205c.29-.0996.5898-.2002.8701-.3203a1.86917,1.86917,0,0,0,.2598-.0996c.3203-.1299.6308-.2705.94042-.42.29-.1396.58008-.29.86038-.4404a5.96667,5.96667,0,0,0,.5498-.3193c.0996-.0606.2099-.1201.29982-.1807a5.76983,5.76983,0,0,0,.52048-.3301l.1191-.0898a13.56972,13.56972,0,0,0,1.3106-.9795,6.83475,6.83475,0,0,0,.6494-.5703,5.91,5.91,0,0,0,.6308-.5996q.2988-.3003.59962-.6299a4.76434,4.76434,0,0,0,.37018-.4209c.12982-.1494.2597-.2998.37982-.46.29978-.3691.58988-.7597.86038-1.1591.2295-.3409.4394-.6807.6494-1.0401.1104-.1807.21-.3701.3106-.5605a10.327,10.327,0,0,0,.5097-1.0498,13.90149,13.90149,0,0,0,.5801-1.4297H232.837a14.46439,14.46439,0,0,0,.58,1.4297,10.32339,10.32339,0,0,0,.50978,1.0498c.1006.1797.20022.3603.2998.54,0,.0098.0108.0098.0108.0205.2099.3594.4199.6992.6494,1.0401a13.85094,13.85094,0,0,0,.8603,1.1591c.1201.1602.25.3106.37992.46a4.77244,4.77244,0,0,0,.37008.4209,17.64953,17.64953,0,0,0,1.2295,1.2295,6.84163,6.84163,0,0,0,.65042.5703,14.46652,14.46652,0,0,0,1.25978.9502c.1806.1299.3701.25.5498.3594.1806.1201.3603.2304.5508.3398a3.61292,3.61292,0,0,0,.42962.2402c.29008.1602.57038.3106.87018.4502q.46425.22425.9599.42a.63262.63262,0,0,0,.16992.0703,8.95372,8.95372,0,0,0,.97948.3593q.55515.19485,1.1104.3301a11.37157,11.37157,0,0,0,1.1396.2598,9.55236,9.55236,0,0,0,1.0508.1709.5777.5777,0,0,0,.17972.0293c.34958.0498.71.0801,1.07028.1006.3799.0293.7695.04,1.1602.04.2197,0,.4394,0,.6591-.0107.17-.0098.3301-.0196.5-.0293a14.27686,14.27686,0,0,0,1.7208-.1905c.25-.04.5-.0898.75-.1396.29-.0606.5898-.1299.8798-.2002.3194-.0801.6397-.1699.96-.2803.2402-.0801.4902-.1601.7295-.25q.61515-.2241,1.2305-.5097a10.43358,10.43358,0,0,0,1.04982-.5098c.17958-.1006.36028-.2002.54-.2998.00978,0,.00978-.0108.01948-.0108.3604-.2001.7002-.4199,1.0401-.6494.3701-.25.73042-.5107,1.0703-.79.25-.1904.5-.3906.7305-.6006a16.01488,16.01488,0,0,0,1.5498-1.5293,5.41259,5.41259,0,0,0,.4902-.5703,15.41061,15.41061,0,0,0,1.04-1.3896c.1192-.1709.2393-.3506.3399-.5303a3.7627,3.7627,0,0,0,.2295-.3799,4.92821,4.92821,0,0,0,.29-.5,18.14662,18.14662,0,0,0,.9404-1.9902q.19485-.4806.3594-.9903.18015-.539.3301-1.1093c.0898-.3301.1601-.6504.2305-.9805.04-.2002.08-.4004.0996-.5899.03022-.1298.0498-.2597.0703-.3896.0303-.2002.0595-.4102.0801-.6104.0195-.1699.04-.3505.04982-.5302a3.77983,3.77983,0,0,0,.03018-.4795A1.43984,1.43984,0,0,0,267.877,216.8496Zm51.92968-46.7705c0-82.5595-67.1699-149.7295-149.7295-149.7295-82.5606,0-149.7305,67.17-149.7305,149.7295,0,82.5606,67.1699,149.7305,149.7305,149.7305C252.63678,319.8096,319.80668,252.6397,319.80668,170.0791Z"/></g><g id="b31981f2-3c35-40be-9978-238390803f0b" data-name="TEXT"><path class="a8014527-cd15-4769-b7f4-829086ded450" d="M435.3946,170.6875v-.2998c0-29.6992,22.1992-54.2988,53.0986-54.2988,19.0488,0,30.4483,6.75,40.9483,16.6504l-8.0997,8.6992c-8.8496-8.3994-18.75-14.3994-32.999-14.3994-23.249,0-40.6484,18.8994-40.6484,43.0478v.3008c0,24.2988,17.5498,43.3477,40.6484,43.3477,14.3994,0,23.8487-5.5489,33.8985-15.1485l7.7998,7.6485c-10.9493,11.0996-22.9493,18.4492-41.9981,18.4492C457.7442,224.6846,435.3946,200.836,435.3946,170.6875Z"/><path class="a8014527-cd15-4769-b7f4-829086ded450" d="M648.0948,170.6875v-.2998c0-28.9492,21.749-54.2988,53.6982-54.2988,31.9483,0,53.3975,25.0498,53.3975,53.998v.3008c0,28.9492-21.749,54.2969-53.6973,54.2969C669.544,224.6846,648.0948,199.6358,648.0948,170.6875Zm94.7968,0v-.2998c0-23.8496-17.3994-43.3486-41.3984-43.3486s-41.0986,19.1992-41.0986,43.0478v.3008c0,23.8487,17.3994,43.3477,41.3984,43.3477S742.8916,194.5362,742.8916,170.6875Z"/><path class="a8014527-cd15-4769-b7f4-829086ded450" d="M885.2442,117.8897h11.999l38.249,57.2968,38.2481-57.2968h12V222.8858H973.8907V137.8389l-38.2491,56.248h-.5996l-38.249-56.0976v84.8965H885.2442Z"/><path class="a8014527-cd15-4769-b7f4-829086ded450" d="M1120.4434,117.8897h39.2979c23.6992,0,39.2988,12.5996,39.2988,33.2988v.2998c0,22.6494-18.8994,34.3486-41.2481,34.3486h-25.499v37.0489h-11.8496Zm37.7979,57.1474c17.3994,0,28.7988-9.2998,28.7988-23.0986v-.3008c0-14.999-11.249-22.7988-28.1983-22.7988H1132.293v46.1982Z"/><path class="a8014527-cd15-4769-b7f4-829086ded450" d="M1353.9932,117.1397h11.0986l47.8487,105.7461h-12.75l-12.2989-27.75h-57.1474l-12.4502,27.75h-12.1494Zm29.2481,67.1972-23.8487-53.3984-23.999,53.3984Z"/><path class="a8014527-cd15-4769-b7f4-829086ded450" d="M1529.6446,207.586l7.3506-8.7002c10.9492,9.9004,21.4482,14.8496,35.998,14.8496,14.0996,0,23.3994-7.5,23.3994-17.8496v-.2989c0-9.75-5.25-15.2998-27.2988-19.9492-24.1494-5.25-35.249-13.0498-35.249-30.2988v-.3008c0-16.499,14.5498-28.6484,34.499-28.6484,15.2988,0,26.249,4.3496,36.8984,12.8994l-6.9004,9.1494c-9.749-7.9492-19.499-11.3994-30.2988-11.3994-13.6494,0-22.3486,7.5-22.3486,16.9492v.2998c0,9.9004,5.3994,15.4492,28.499,20.3994,23.3984,5.1006,34.1982,13.6494,34.1982,29.6983v.3007c0,17.9991-14.999,29.6993-35.8486,29.6993C1555.8936,224.3858,1542.2442,218.835,1529.6446,207.586Z"/></g></svg>